<svg preserveAspectRatio="none" overflow="visible" style="display: block;" width="48" height="48" viewBox="0 0 48 48" fill="none" xmlns="http://www.w3.org/2000/svg">
<g id="lucide/message-circle-more">
<path id="Vector" d="M16 24H16.02M24 24H24.02M32 24H32.02M5.984 32.684C6.27808 33.4258 6.34355 34.2387 6.172 35.018L4.042 41.598C3.97337 41.9317 3.99111 42.2774 4.09355 42.6023C4.19599 42.9272 4.37972 43.2206 4.62733 43.4545C4.87494 43.6885 5.17822 43.8554 5.5084 43.9393C5.83858 44.0232 6.18472 44.0214 6.514 43.934L13.34 41.938C14.0754 41.7921 14.8371 41.8559 15.538 42.122C19.8088 44.1164 24.6467 44.5384 29.1983 43.3134C33.7499 42.0885 37.7225 39.2953 40.4154 35.4267C43.1083 31.5582 44.3482 26.8628 43.9166 22.1691C43.4849 17.4754 41.4094 13.0849 38.0561 9.77239C34.7029 6.45984 30.2874 4.43808 25.5888 4.06379C20.8901 3.68951 16.2103 4.98676 12.3749 7.72668C8.5395 10.4666 5.79506 14.4731 4.62579 19.0393C3.45651 23.6055 3.93754 28.4379 5.984 32.684Z" stroke="#022DA8" stroke-width="4" stroke-linecap="round" stroke-linejoin="round"/>
</g>
</svg>
